<?xml version="1.0" encoding="utf-8"?>
<!-- Generator: Adobe Illustrator 21.0.2, SVG Export Plug-In . SVG Version: 6.00 Build 0)  -->
<svg version="1.1" id="Слой_1" xmlns="http://www.w3.org/2000/svg" xmlns:xlink="http://www.w3.org/1999/xlink" x="0px" y="0px"
	 viewBox="0 0 382.3 449.7" style="enable-background:new 0 0 382.3 449.7;" xml:space="preserve">
<style type="text/css">
	.st0{fill:#DF7720;}
</style>
<path class="st0" d="M132.8,0c-19.3,0-34.9,15.6-34.9,34.9c0,20.6,34.9,60.4,34.9,60.4s34.9-38.3,34.9-60.4
	C167.8,15.6,152.1,0,132.8,0z M132.8,48.6c-8.3,0-15.1-6.8-15.1-15.1c0-8.3,6.8-15.1,15.1-15.1c8.3,0,15.1,6.8,15.1,15.1
	C148,41.8,141.2,48.6,132.8,48.6z"/>
<path class="st0" d="M247.8,100.5c-12.7,0-23,10.3-23,23c0,13.6,23,39.8,23,39.8s23-25.2,23-39.8
	C270.8,110.8,260.5,100.5,247.8,100.5z M247.8,132.6c-5.5,0-10-4.5-10-10c0-5.5,4.5-10,10-10c5.5,0,10,4.5,10,10
	C257.7,128.1,253.3,132.6,247.8,132.6z"/>
<path class="st0" d="M254,275.5c-12.7,0-23,10.3-23,23c0,13.6,23,39.8,23,39.8s23-25.2,23-39.8C277,285.8,266.7,275.5,254,275.5z
	 M254,307.6c-5.5,0-10-4.5-10-10c0-5.5,4.5-10,10-10c5.5,0,10,4.5,10,10C264,303.1,259.5,307.6,254,307.6z"/>
<path class="st0" d="M125.3,307c-12.7,0-23,10.3-23,23c0,13.6,23,39.8,23,39.8s23-25.2,23-39.8C148.3,317.3,138,307,125.3,307z
	 M125.3,339c-5.5,0-10-4.5-10-10c0-5.5,4.5-10,10-10c5.5,0,10,4.5,10,10C135.2,334.5,130.8,339,125.3,339z"/>
<path class="st0" d="M13.6,108.1c-7.5,0-13.6,6.1-13.6,13.6c0,8,13.6,23.5,13.6,23.5s13.6-14.9,13.6-23.5
	C27.2,114.2,21.1,108.1,13.6,108.1z M13.6,127c-3.2,0-5.9-2.6-5.9-5.9c0-3.2,2.6-5.9,5.9-5.9c3.2,0,5.9,2.6,5.9,5.9
	C19.5,124.3,16.8,127,13.6,127z"/>
<path class="st0" d="M94.6,243.1c-7.5,0-13.6,6.1-13.6,13.6c0,8,13.6,23.5,13.6,23.5s13.6-14.9,13.6-23.5
	C108.2,249.2,102.1,243.1,94.6,243.1z M94.6,262c-3.2,0-5.9-2.6-5.9-5.9c0-3.2,2.6-5.9,5.9-5.9c3.2,0,5.9,2.6,5.9,5.9
	C100.5,259.3,97.8,262,94.6,262z"/>
<path class="st0" d="M161.6,258.1c-7.5,0-13.6,6.1-13.6,13.6c0,8,13.6,23.5,13.6,23.5s13.6-14.9,13.6-23.5
	C175.2,264.2,169.1,258.1,161.6,258.1z M161.6,277c-3.2,0-5.9-2.6-5.9-5.9c0-3.2,2.6-5.9,5.9-5.9c3.2,0,5.9,2.6,5.9,5.9
	C167.5,274.3,164.8,277,161.6,277z"/>
<path class="st0" d="M298.6,342.1c-7.5,0-13.6,6.1-13.6,13.6c0,8,13.6,23.5,13.6,23.5s13.6-14.9,13.6-23.5
	C312.2,348.2,306.1,342.1,298.6,342.1z M298.6,361c-3.2,0-5.9-2.6-5.9-5.9c0-3.2,2.6-5.9,5.9-5.9c3.2,0,5.9,2.6,5.9,5.9
	C304.5,358.3,301.8,361,298.6,361z"/>
<path class="st0" d="M263.6,369.1c-7.5,0-13.6,6.1-13.6,13.6c0,8,13.6,23.5,13.6,23.5s13.6-14.9,13.6-23.5
	C277.2,375.2,271.1,369.1,263.6,369.1z M263.6,388c-3.2,0-5.9-2.6-5.9-5.9c0-3.2,2.6-5.9,5.9-5.9c3.2,0,5.9,2.6,5.9,5.9
	C269.5,385.3,266.8,388,263.6,388z"/>
<path class="st0" d="M275.6,407.1c-7.5,0-13.6,6.1-13.6,13.6c0,8,13.6,23.5,13.6,23.5s13.6-14.9,13.6-23.5
	C289.2,413.2,283.1,407.1,275.6,407.1z M275.6,426c-3.2,0-5.9-2.6-5.9-5.9c0-3.2,2.6-5.9,5.9-5.9c3.2,0,5.9,2.6,5.9,5.9
	C281.5,423.3,278.8,426,275.6,426z"/>
<path class="st0" d="M359.8,388.5c-12.4,0-22.4,10-22.4,22.4c0,13.2,22.4,38.8,22.4,38.8s22.4-24.6,22.4-38.8
	C382.3,398.6,372.2,388.5,359.8,388.5z M359.8,419.7c-5.4,0-9.7-4.3-9.7-9.7c0-5.4,4.3-9.7,9.7-9.7c5.4,0,9.7,4.3,9.7,9.7
	C369.5,415.4,365.2,419.7,359.8,419.7z"/>
</svg>
