<?xml version="1.0" encoding="utf-8"?>
<!-- Generator: Adobe Illustrator 21.0.2, SVG Export Plug-In . SVG Version: 6.00 Build 0)  -->
<svg version="1.1" id="Слой_1" xmlns="http://www.w3.org/2000/svg" xmlns:xlink="http://www.w3.org/1999/xlink" x="0px" y="0px"
	 viewBox="0 0 182.2 102.8" style="enable-background:new 0 0 182.2 102.8;" xml:space="preserve">
<style type="text/css">
	.st0{fill:#DF7720;}
</style>
<path class="st0" d="M95.7,3.8c-12.4,0-22.4,10-22.4,22.4C73.3,39.5,95.7,65,95.7,65s22.4-24.6,22.4-38.8
	C118.1,13.8,108,3.8,95.7,3.8z M95.7,35c-5.4,0-9.7-4.3-9.7-9.7c0-5.4,4.3-9.7,9.7-9.7c5.4,0,9.7,4.3,9.7,9.7
	C105.4,30.7,101,35,95.7,35z"/>
<path class="st0" d="M16.7,34.4C7.5,34.4,0,41.9,0,51.1C0,61,16.7,80,16.7,80s16.7-18.3,16.7-28.9C33.4,41.9,25.9,34.4,16.7,34.4z
	 M16.7,57.7c-4,0-7.2-3.2-7.2-7.2c0-4,3.2-7.2,7.2-7.2c4,0,7.2,3.2,7.2,7.2C23.9,54.4,20.7,57.7,16.7,57.7z"/>
<path class="st0" d="M165.5,57.2c-9.2,0-16.7,7.5-16.7,16.7c0,9.9,16.7,28.9,16.7,28.9s16.7-18.3,16.7-28.9
	C182.2,64.7,174.7,57.2,165.5,57.2z M165.5,80.5c-4,0-7.2-3.2-7.2-7.2c0-4,3.2-7.2,7.2-7.2c4,0,7.2,3.2,7.2,7.2
	C172.7,77.2,169.4,80.5,165.5,80.5z"/>
<path class="st0" d="M149.8,0c-7,0-12.7,5.7-12.7,12.7c0,7.5,12.7,22,12.7,22s12.7-13.9,12.7-22C162.5,5.7,156.8,0,149.8,0z
	 M149.8,17.7c-3,0-5.5-2.5-5.5-5.5c0-3,2.5-5.5,5.5-5.5c3,0,5.5,2.5,5.5,5.5C155.3,15.2,152.8,17.7,149.8,17.7z"/>
</svg>
