<?xml version="1.0" encoding="utf-8"?>
<!-- Generator: Adobe Illustrator 21.0.2, SVG Export Plug-In . SVG Version: 6.00 Build 0)  -->
<svg version="1.1" id="Слой_1" xmlns="http://www.w3.org/2000/svg" xmlns:xlink="http://www.w3.org/1999/xlink" x="0px" y="0px"
	 viewBox="0 0 300.7 286.2" style="enable-background:new 0 0 300.7 286.2;" xml:space="preserve">
<style type="text/css">
	.st0{fill:#DF7720;}
</style>
<path class="st0" d="M277.7-1c-12.7,0-23,10.3-23,23c0,13.6,23,39.8,23,39.8s23-25.2,23-39.8C300.7,9.3,290.4-1,277.7-1z M277.7,31
	c-5.5,0-10-4.5-10-10c0-5.5,4.5-10,10-10c5.5,0,10,4.5,10,10C287.7,26.6,283.2,31,277.7,31z"/>
<path class="st0" d="M222.5,199.8c-12.7,0-23,10.3-23,23c0,13.6,23,39.8,23,39.8s23-25.2,23-39.8
	C245.5,210.1,235.2,199.8,222.5,199.8z M222.5,231.8c-5.5,0-10-4.5-10-10c0-5.5,4.5-10,10-10c5.5,0,10,4.5,10,10
	C232.5,227.3,228,231.8,222.5,231.8z"/>
<path class="st0" d="M72.5,62.9c-12.7,0-23,10.3-23,23c0,13.6,23,39.8,23,39.8s23-25.2,23-39.8C95.5,73.2,85.2,62.9,72.5,62.9z
	 M72.5,94.9c-5.5,0-10-4.5-10-10c0-5.5,4.5-10,10-10c5.5,0,10,4.5,10,10C82.5,90.5,78,94.9,72.5,94.9z"/>
<path class="st0" d="M205,62.9c-12.7,0-23,10.3-23,23c0,13.6,23,39.8,23,39.8s23-25.2,23-39.8C228,73.2,217.7,62.9,205,62.9z
	 M205,94.9c-5.5,0-10-4.5-10-10c0-5.5,4.5-10,10-10c5.5,0,10,4.5,10,10C215,90.5,210.5,94.9,205,94.9z"/>
<path class="st0" d="M148.2,0c-9.6,0-17.5,7.8-17.5,17.5c0,10.3,17.5,30.2,17.5,30.2s17.5-19.1,17.5-30.2C165.7,7.8,157.8,0,148.2,0
	z M148.2,24.3c-4.2,0-7.6-3.4-7.6-7.6c0-4.2,3.4-7.6,7.6-7.6c4.2,0,7.6,3.4,7.6,7.6C155.8,20.9,152.4,24.3,148.2,24.3z"/>
<path class="st0" d="M13.6,76.1C6.1,76.1,0,82.2,0,89.7c0,8,13.6,23.5,13.6,23.5s13.6-14.9,13.6-23.5C27.2,82.2,21.1,76.1,13.6,76.1
	z M13.6,95c-3.2,0-5.9-2.6-5.9-5.9c0-3.2,2.6-5.9,5.9-5.9c3.2,0,5.9,2.6,5.9,5.9C19.5,92.3,16.8,95,13.6,95z"/>
<path class="st0" d="M13.6,115.1c-7.5,0-13.6,6.1-13.6,13.6c0,8,13.6,23.5,13.6,23.5s13.6-14.9,13.6-23.5
	C27.2,121.2,21.1,115.1,13.6,115.1z M13.6,134c-3.2,0-5.9-2.6-5.9-5.9c0-3.2,2.6-5.9,5.9-5.9c3.2,0,5.9,2.6,5.9,5.9
	C19.5,131.3,16.8,134,13.6,134z"/>
<path class="st0" d="M45.6,106.1c-7.5,0-13.6,6.1-13.6,13.6c0,8,13.6,23.5,13.6,23.5s13.6-14.9,13.6-23.5
	C59.2,112.2,53.1,106.1,45.6,106.1z M45.6,125c-3.2,0-5.9-2.6-5.9-5.9c0-3.2,2.6-5.9,5.9-5.9c3.2,0,5.9,2.6,5.9,5.9
	C51.5,122.3,48.8,125,45.6,125z"/>
<path class="st0" d="M105.6,108.1c-7.5,0-13.6,6.1-13.6,13.6c0,8,13.6,23.5,13.6,23.5s13.6-14.9,13.6-23.5
	C119.2,114.2,113.1,108.1,105.6,108.1z M105.6,127c-3.2,0-5.9-2.6-5.9-5.9c0-3.2,2.6-5.9,5.9-5.9c3.2,0,5.9,2.6,5.9,5.9
	C111.5,124.3,108.8,127,105.6,127z"/>
<path class="st0" d="M248.6,249.1c-7.5,0-13.6,6.1-13.6,13.6c0,8,13.6,23.5,13.6,23.5s13.6-14.9,13.6-23.5
	C262.2,255.2,256.1,249.1,248.6,249.1z M248.6,268c-3.2,0-5.9-2.6-5.9-5.9c0-3.2,2.6-5.9,5.9-5.9c3.2,0,5.9,2.6,5.9,5.9
	C254.5,265.3,251.8,268,248.6,268z"/>
</svg>
