<?xml version="1.0" encoding="utf-8"?>
<!-- Generator: Adobe Illustrator 21.0.2, SVG Export Plug-In . SVG Version: 6.00 Build 0)  -->
<svg version="1.1" id="Слой_1" xmlns="http://www.w3.org/2000/svg" xmlns:xlink="http://www.w3.org/1999/xlink" x="0px" y="0px"
	 viewBox="0 0 235.8 203" style="enable-background:new 0 0 235.8 203;" xml:space="preserve">
<style type="text/css">
	.st0{fill:#DF7720;}
</style>
<path class="st0" d="M24,0C10.7,0,0,10.7,0,24c0,14.2,24,41.5,24,41.5S48,39.2,48,24C48,10.7,37.2,0,24,0z M24,33.4
	c-5.7,0-10.4-4.6-10.4-10.4c0-5.7,4.6-10.4,10.4-10.4c5.7,0,10.4,4.6,10.4,10.4C34.4,28.7,29.7,33.4,24,33.4z"/>
<path class="st0" d="M74.9,65.2c-8.4,0-15.2,6.8-15.2,15.2c0,9,15.2,26.3,15.2,26.3s15.2-16.7,15.2-26.3
	C90.1,72,83.3,65.2,74.9,65.2z M74.9,86.4c-3.6,0-6.6-2.9-6.6-6.6c0-3.6,2.9-6.6,6.6-6.6c3.6,0,6.6,2.9,6.6,6.6
	C81.5,83.4,78.6,86.4,74.9,86.4z"/>
<path class="st0" d="M132.6,1.1c-6.4,0-11.6,5.2-11.6,11.6c0,6.8,11.6,20,11.6,20s11.6-12.7,11.6-20C144.1,6.3,139,1.1,132.6,1.1z
	 M132.6,17.2c-2.8,0-5-2.2-5-5c0-2.8,2.2-5,5-5c2.8,0,5,2.2,5,5C137.6,15,135.3,17.2,132.6,17.2z"/>
<path class="st0" d="M165.6,86c-8.4,0-15.2,6.8-15.2,15.2c0,9,15.2,26.3,15.2,26.3s15.2-16.7,15.2-26.3C180.8,92.8,174,86,165.6,86z
	 M165.6,107.1c-3.6,0-6.6-2.9-6.6-6.6c0-3.6,2.9-6.6,6.6-6.6c3.6,0,6.6,2.9,6.6,6.6C172.2,104.2,169.2,107.1,165.6,107.1z"/>
<path class="st0" d="M159.3,156c-8.4,0-15.2,6.8-15.2,15.2c0,9,15.2,26.3,15.2,26.3s15.2-16.7,15.2-26.3
	C174.5,162.8,167.7,156,159.3,156z M159.3,177.1c-3.6,0-6.6-2.9-6.6-6.6c0-3.6,2.9-6.6,6.6-6.6c3.6,0,6.6,2.9,6.6,6.6
	C165.9,174.2,163,177.1,159.3,177.1z"/>
<path class="st0" d="M220.6,114.5c-8.4,0-15.2,6.8-15.2,15.2c0,9,15.2,26.3,15.2,26.3s15.2-16.7,15.2-26.3
	C235.8,121.3,229,114.5,220.6,114.5z M220.6,135.6c-3.6,0-6.6-2.9-6.6-6.6c0-3.6,2.9-6.6,6.6-6.6c3.6,0,6.6,2.9,6.6,6.6
	C227.2,132.7,224.2,135.6,220.6,135.6z"/>
</svg>
